<?xml version="1.0" encoding="UTF-8" standalone="no"?>
<!DOCTYPE svg PUBLIC "-//W3C//DTD SVG 1.1//EN" "http://www.w3.org/Graphics/SVG/1.1/DTD/svg11.dtd">
<svg version="1.1" xmlns="http://www.w3.org/2000/svg" xmlns:xlink="http://www.w3.org/1999/xlink" preserveAspectRatio="xMidYMid meet" viewBox="0 0 640 640" width="640" height="640"><defs><path d="M159.58 257.14C194.96 257.14 223.65 285.83 223.65 321.22C223.65 358.69 223.65 407.03 223.65 444.5C223.65 479.88 194.96 508.57 159.58 508.57C146.44 508.57 171.09 508.57 157.95 508.57C122.57 508.57 93.88 479.88 93.88 444.5C93.88 407.03 93.88 358.69 93.88 321.22C93.88 285.83 122.57 257.14 157.95 257.14C171.09 257.14 146.44 257.14 159.58 257.14Z" id="d1Xh1csHUu"></path><path d="M568.29 320.27C567.99 355.65 539.06 384.1 503.67 383.8C422.42 383.11 242.72 381.59 161.46 380.9C126.08 380.6 97.63 351.67 97.93 316.29C98.04 303.15 97.84 327.8 97.95 314.66C98.25 279.28 127.18 250.84 162.56 251.14C243.82 251.82 423.52 253.34 504.77 254.03C540.16 254.33 568.6 283.26 568.3 318.65C568.19 331.78 568.4 307.13 568.29 320.27Z" id="b1g05m4Ru1"></path><path d="M508.34 131.43C543.73 131.43 572.42 160.12 572.42 195.5C572.42 232.97 572.42 281.31 572.42 318.78C572.42 354.17 543.73 382.86 508.34 382.86C495.21 382.86 519.86 382.86 506.72 382.86C471.34 382.86 442.65 354.17 442.65 318.78C442.65 281.31 442.65 232.97 442.65 195.5C442.65 160.12 471.34 131.43 506.72 131.43C519.86 131.43 495.21 131.43 508.34 131.43Z" id="d314RzfDg"></path><path d="M217.97 457.01C228.95 457.01 237.84 465.91 237.84 476.89C237.84 483.42 237.84 483.16 237.84 489.7C237.84 500.67 228.95 509.57 217.97 509.57C190.32 509.57 127.22 509.57 99.56 509.57C88.58 509.57 79.69 500.67 79.69 489.7C79.69 483.16 79.69 483.42 79.69 476.89C79.69 465.91 88.58 457.01 99.56 457.01C127.22 457.01 190.32 457.01 217.97 457.01Z" id="c1TQgpEeKB"></path><path d="M566.74 130.43C577.71 130.43 586.61 139.33 586.61 150.3C586.61 156.84 586.61 156.58 586.61 163.11C586.61 174.09 577.71 182.99 566.74 182.99C539.08 182.99 475.98 182.99 448.33 182.99C437.35 182.99 428.46 174.09 428.46 163.11C428.46 156.58 428.46 156.84 428.46 150.3C428.46 139.33 437.35 130.43 448.33 130.43C475.98 130.43 539.08 130.43 566.74 130.43Z" id="iZ7BPbAsk"></path><path d="M350.46 308.24C350.46 358.6 310.48 399.48 261.24 399.48C212 399.48 172.03 358.6 172.03 308.24C172.03 257.88 212 217 261.24 217C310.48 217 350.46 257.88 350.46 308.24Z" id="e1hKAl577N"></path><path d="M281.23 258.61C286.25 260.33 288.93 265.79 287.21 270.81C283.68 281.12 276.21 302.94 272.68 313.24C270.96 318.27 265.5 320.94 260.47 319.22C258.66 318.6 262.29 319.85 260.47 319.22C255.45 317.5 252.78 312.04 254.5 307.02C258.02 296.71 265.5 274.89 269.03 264.59C270.74 259.56 276.21 256.89 281.23 258.61C283.05 259.23 279.41 257.98 281.23 258.61Z" id="a3WDYAAJnL"></path><path d="M520.02 343.62C524.89 343.62 528.83 347.57 528.83 352.43C528.83 354.19 528.83 350.67 528.83 352.43C528.83 357.3 524.89 361.24 520.02 361.24C494.23 361.24 425.68 361.24 399.89 361.24C395.02 361.24 391.08 357.3 391.08 352.43C391.08 350.67 391.08 354.19 391.08 352.43C391.08 347.57 395.02 343.62 399.89 343.62C425.68 343.62 494.23 343.62 520.02 343.62Z" id="b1peMCkKVC"></path></defs><g><g><g><use xlink:href="#d1Xh1csHUu" opacity="1" fill="#d1d1d1" fill-opacity="1"></use></g><g><use xlink:href="#b1g05m4Ru1" opacity="1" fill="#d1d1d1" fill-opacity="1"></use></g><g><use xlink:href="#d314RzfDg" opacity="1" fill="#d1d1d1" fill-opacity="1"></use></g><g><use xlink:href="#c1TQgpEeKB" opacity="1" fill="#505160" fill-opacity="1"></use></g><g><use xlink:href="#iZ7BPbAsk" opacity="1" fill="#505160" fill-opacity="1"></use></g><g><use xlink:href="#e1hKAl577N" opacity="1" fill="#f5f5f5" fill-opacity="1"></use><g><use xlink:href="#e1hKAl577N" opacity="1" fill-opacity="0" stroke="#68829e" stroke-width="31" stroke-opacity="1"></use></g></g><g><use xlink:href="#a3WDYAAJnL" opacity="1" fill="#505160" fill-opacity="1"></use></g><g><use xlink:href="#b1peMCkKVC" opacity="1" fill="#f9f9f9" fill-opacity="1"></use></g></g></g></svg>